<svg id="SvgjsSvg1001" width="288" height="288" xmlns="http://www.w3.org/2000/svg" version="1.1" xmlns:xlink="http://www.w3.org/1999/xlink" xmlns:svgjs="http://svgjs.com/svgjs"><defs id="SvgjsDefs1002"></defs><g id="SvgjsG1008" transform="matrix(1,0,0,1,0,0)"><svg xmlns="http://www.w3.org/2000/svg" enable-background="new 0 0 500 208.4" viewBox="0 0 500 208.4" width="288" height="288"><path fill="#514340" d="M33.3 156.5v-1c.6-.2 1.1-.4 1.3-.8.2-.2.4-.6.4-1.1 0-.2 0-.4 0-.6 0-.2 0-.4 0-.6l-10.5-29.4c-.4-1.3-1-2.1-1.3-2.5s-1.1-.8-1.9-1v-1l12.2 0v1c-.6.2-1.1.4-1.3.8-.2.2-.4.6-.4 1 0 .2 0 .2 0 .6 0 .2.2.4.2.8l7.5 22.5 7.3-22.5c0-.2.2-.2.2-.6 0-.2 0-.4 0-.6 0-.6-.2-1-.4-1.1s-.6-.6-1.3-.8v-1h13v1c-.6.2-1.1.4-1.3.8-.2.2-.4.6-.4 1 0 .2 0 .2 0 .6 0 .2.2.4.2.8l7.3 22 7.3-22c0-.2 0-.2 0-.6 0-.2 0-.4 0-.6 0-.6-.2-1-.4-1.1-.2-.2-.6-.6-1.3-.8v-1l11.7 0v1c-1 .2-1.5.6-1.9 1.1-.4.4-.8 1.3-1.3 2.5l-10.3 29.4c0 .2 0 .4-.2.6 0 .2 0 .4 0 .6 0 .6.2 1 .4 1.1.2.2.6.6 1.3.8v1H57.4v-1.1c.8-.2 1.1-.4 1.3-.8.2-.2.4-.6.4-1.1 0-.2 0-.2 0-.4 0-.2 0-.4-.2-.6l-8.2-24.8-8.2 24.8c0 .2-.2.4-.2.6s0 .4 0 .6c0 .6.2 1 .4 1.1s.8.6 1.3.8v1H33.3L33.3 156.5zM87 154.2l3.1-7.6 1 .4c0 0 0 .2-.2.2 0 .2 0 .4 0 .4 0 .8 1.1 1.7 3.4 2.5 2.3 1 4.8 1.3 7.1 1.3 2.5 0 4.4-.4 5.9-1.1 1.5-.8 2.1-1.7 2.1-2.9 0-1.7-2.5-2.7-7.5-3.1-1.9-.2-3.4-.2-4.6-.4-3.4-.4-5.9-1.3-7.6-2.7-1.7-1.5-2.5-3.4-2.5-6.1 0-3.2 1.3-5.7 3.8-7.6 2.5-1.9 5.9-2.9 9.9-2.9 2.9 0 5.7.6 8.6 1.7.6.2.8.2 1 .2s.8.2 1.7.8c.8.6 1.5.8 1.9.8 0 0 .2 0 .4-.2.2-.2.4-.2.6-.4l.8.4-3.6 7.8-1-.6v-.2-.2c0-1-1.1-1.9-3.2-2.9-2.3-1-4.6-1.5-6.9-1.5-2.1 0-3.8.4-5.2 1s-1.9 1.5-1.9 2.5c0 1.5 1.9 2.5 5.7 2.7 2.9.2 5.2.4 7.1.8 3.1.6 5.5 1.7 7.1 3.2 1.5 1.5 2.3 3.6 2.3 5.9 0 3.1-1.3 5.5-4 7.6-2.7 1.9-6.3 3.1-10.7 3.1-4.2 0-8-1-11.8-2.7-.8-.4-1.1-.6-1.3-.6-.2 0-.4 0-.6.2-.2 0-.2.2-.2.4L87 154.2zM158.2 143.5l.8-.6 5 8.2-.8.6c-.2-.2-.4-.4-.6-.6-.2-.2-.2-.2-.4-.2s-1 .4-2.1 1.1c-5.3 3.4-10.5 5.2-15.5 5.2-5.7 0-10.7-1.9-14.5-5.5-3.8-3.8-5.7-8.4-5.7-13.9 0-5.7 1.9-10.3 5.9-14.1 3.8-3.6 9-5.5 15.3-5.5 3.2 0 6.5.6 9.7 1.7 3.2 1.1 5 1.7 5.2 1.7s.6 0 1-.2c.2 0 .6 0 1-.2l.8.6-5 8.6-.8-.6c0 0 0 0 0-.2s0-.2 0-.2c0-1.1-1.3-2.1-3.8-3.2-2.7-1.1-5.3-1.7-8.2-1.7-3.8 0-7.1 1.3-9.6 3.6-2.5 2.3-3.8 5.5-3.8 9.2 0 3.8 1.3 7.1 3.8 9.6 2.5 2.3 5.7 3.6 9.9 3.6 3.1 0 5.9-.6 8.8-2.1 2.9-1.3 4.4-2.5 4.4-3.4 0-.2 0-.4 0-.6C158.4 143.9 158.4 143.7 158.2 143.5zM196.1 128.6c0-.8-.2-1.1-.4-1.5-.2-.2-.6-.6-1.3-.6v-1l10.3 0v1c-.6.2-1.1.4-1.3.6s-.4.8-.4 1.5V145c0 4.4-1.1 7.6-3.4 9.4-2.3 1.9-6.1 2.9-11.5 2.9-5.3 0-9.2-1-11.3-2.9-2.3-1.9-3.4-5-3.4-9.4v-16.4c0-.8-.2-1.1-.4-1.5-.2-.2-.6-.6-1.3-.6v-1h10.1v1c-.6.2-1 .4-1.3.6-.2.2-.4.8-.4 1.5v15.1c0 2.7.6 4.8 1.9 5.9 1.1 1.1 3.2 1.7 6.1 1.7 2.7 0 4.8-.6 6.1-1.9 1.1-1.1 1.9-3.2 1.9-6.1L196.1 128.6 196.1 128.6zM235.4 125.6c3.4 0 5.9.8 7.8 2.1 1.9 1.5 2.7 3.4 2.7 5.9 0 1.3-.4 2.7-1 3.6s-1.7 1.9-3.1 2.7c1.7 1 3.1 1.9 3.8 3.2s1.1 2.7 1.1 4.4c0 2.9-1.1 5-3.2 6.7-2.1 1.5-5.2 2.3-9 2.3h-19.5v-1c.6-.2 1.1-.4 1.3-.6s.4-.8.4-1.5v-25c0-.8-.2-1.1-.4-1.5-.2-.2-.6-.6-1.3-.6v-1h20.3L235.4 125.6zM233.3 130.9L233.3 130.9h-9.6v6.3h10.3c1.7 0 3.1-.2 3.8-.8 1-.6 1.3-1.3 1.3-2.5s-.4-1.9-1.3-2.5C237.2 131.3 235.6 130.9 233.3 130.9zM232.8 142.7L232.8 142.7h-9v8.4h8.8c2.9 0 5-.4 5.9-1 1.1-.6 1.7-1.7 1.7-3.2 0-1.5-.6-2.5-1.7-3.2C237.3 143.1 235.4 142.7 232.8 142.7zM283.4 125.6c.8 0 1.1-.2 1.3-.4.2-.2.4-.6.6-1.3h1v9.6h-1c-.2-.8-.4-1.1-.6-1.3-.2-.2-.8-.4-1.3-.4h-17.6v6.1h10.9c.8 0 1.1-.2 1.3-.4s.4-.6.6-1.3h1v8.8h-1c-.2-.6-.4-1.1-.6-1.3-.2-.2-.8-.4-1.3-.4l-10.9 0v7.1h18.3c.8 0 1.1-.2 1.3-.4s.4-.8.6-1.3h1l0 9.7h-1c-.2-.8-.4-1.1-.6-1.3-.2-.2-.8-.4-1.3-.4h-26.9v-1c.6-.2 1.1-.4 1.3-.6.2-.4.4-.8.4-1.5v-25c0-.8-.2-1.1-.4-1.5-.2-.2-.8-.6-1.3-.6v-1l26.2 0V125.6z" class="color58595b svgShape"></path><path fill="#fc4e2f" d="M318.9 125.4c-.8 0-1.1.2-1.3.4-.2.2-.4.8-.6 1.3h-1V117h.8c.2.8.4 1.1.6 1.3.2.2.8.4 1.3.4l29.6 0c.8 0 1.1-.2 1.3-.4.2-.2.4-.8.6-1.3h1v10.3h-1c-.2-.8-.4-1.1-.6-1.3-.2-.2-.8-.4-1.3-.4h-10.9v28.1c0 .8.2 1.1.4 1.5.2.2.6.4 1.3.6v1h-10.9v-1.1c.6-.2 1.1-.4 1.3-.6.2-.2.4-.8.4-1.5v-28.1H318.9zM384.5 125.6c.8 0 1.1-.2 1.3-.4.2-.2.4-.6.6-1.3h1v9.6h-1c-.2-.8-.4-1.1-.6-1.3-.2-.2-.8-.4-1.3-.4h-17.6v6.1h10.9c.8 0 1.1-.2 1.3-.4.2-.2.4-.6.6-1.3h1v8.8h-1c-.2-.6-.4-1.1-.6-1.3-.2-.2-.8-.4-1.3-.4h-10.9v7.1h18.3c.8 0 1.1-.2 1.3-.4.2-.2.4-.8.6-1.3h1v9.7h-1c-.2-.8-.4-1.1-.6-1.3-.2-.2-.8-.4-1.3-.4l-26.9 0v-1c.6-.2 1.1-.4 1.3-.6.2-.4.4-.8.4-1.5l0-25c0-.8-.2-1.1-.4-1.5-.2-.2-.8-.6-1.3-.6v-1h26.2V125.6zM424.6 135.3l-.8-.4v-.2-.2c0-.8-1-1.7-3.1-2.5-2.1-1-4.2-1.3-6.5-1.3-3.2 0-5.7 1-7.8 2.9-1.9 1.9-2.9 4.4-2.9 7.5 0 3.1 1 5.5 2.9 7.5 1.9 1.9 4.6 2.7 7.8 2.7 2.5 0 5-.6 7.1-1.7 2.3-1.1 3.4-1.9 3.4-2.7 0 0 0-.2 0-.4 0-.2-.2-.4-.2-.6l.8-.4 4.4 6.9-.8.4c-.2-.2-.4-.4-.6-.4s-.2 0-.4 0c-.2 0-1 .4-1.9 1-4.4 2.7-8.8 4.2-13 4.2-5 0-9-1.5-12.2-4.6-3.2-3.1-5-7.1-5-11.7 0-4.8 1.7-8.6 5-11.7 3.2-3.1 7.6-4.6 12.8-4.6 2.7 0 5.3.4 8.2 1.3 2.7 1 4.2 1.3 4.6 1.3.2 0 .4 0 .6 0s.6-.2.8-.2l.8.4L424.6 135.3zM445.4 153.4c0 .8.2 1.1.4 1.5.2.2.6.6 1.3.6v1H437v-1c.6-.2 1-.4 1.3-.6.2-.2.4-.8.4-1.5v-25c0-.8-.2-1.1-.4-1.5-.2-.2-.6-.6-1.3-.6v-1h10.1v1c-.6.2-1.1.4-1.3.6-.2.4-.4.8-.4 1.5v8.4h16v-8.4c0-.8-.2-1.1-.4-1.5-.2-.2-.6-.6-1.3-.6v-1l10.3 0v1c-.6.2-1 .4-1.3.6-.2.2-.4.8-.4 1.5l0 25c0 .8.2 1.1.4 1.5.2.2.6.6 1.3.6v1h-10.3v-1c.8-.2 1.1-.4 1.3-.6.2-.4.4-.8.4-1.5v-10.5h-16V153.4z" class="color2193d2 svgShape"></path><polygon fill="#fc4e2f" points="148.5 90.8 170.9 52 172 50.3 174.1 50.3 218.6 50.3 220.7 50.3 221.7 52 244.2 90.4 245.2 92.1 244.2 93.8 233.1 113.3 225.1 113.3 237.2 92.1 216.7 57.3 176 57.3 155.6 92.5 167.8 113.3 159.6 113.3 148.5 94.2 147.4 92.5" class="color2193d2 svgShape"></polygon><polygon fill="#fc4e2f" points="15.1 90.8 37.7 52 38.6 50.3 40.6 50.3 85.3 50.3 87.4 50.3 88.3 52 110.9 90.4 111.8 92.1 110.9 93.8 99.8 113.3 91.8 113.3 103.8 92.1 83.4 57.3 42.7 57.3 22.2 92.5 34.4 113.3 26.2 113.3 15.1 94.2 14 92.5" class="color2193d2 svgShape"></polygon><polygon fill="#fc4e2f" points="81.8 51.2 104.4 12.4 105.3 10.7 107.2 10.7 151.9 10.7 154 10.7 155 12.4 177.5 50.8 178.5 52.6 177.5 54.3 166.5 73.6 158.4 73.6 170.5 52.6 150 17.6 109.3 17.6 88.9 53 101.1 73.6 92.9 73.6 81.8 54.7 80.7 53" class="color2193d2 svgShape"></polygon><polygon fill="#fc4e2f" points="81.8 54.5 104.4 93.3 105.3 95.2 107.2 95.2 151.9 95.2 154 95.2 155 93.3 177.5 55.1 178.5 53.1 177.5 51.4 166.5 32.1 158.4 32.1 170.5 53.1 150 88.1 109.3 88.1 88.9 52.8 101.1 32.1 92.9 32.1 81.8 51 80.7 52.8" class="color2193d2 svgShape"></polygon><ellipse cx="477.2" cy="114.9" fill="none" stroke="#e34b30" stroke-miterlimit="10" stroke-width=".167" rx="8.8" ry="8.6" class="colorStroke2c2a29 svgStroke"></ellipse><text fill="#2c2a29" font-family="MyriadPro-Regular" font-size="13.365" transform="translate(472.437 119.761)" svgjs:data="{&quot;leading&quot;:&quot;1.3&quot;}">R</text><path fill="#514340" d="M226.8 181.4v-13.3h2.9v13.3c0 5.4 2.3 7.1 5.2 7.1 3 0 5.4-1.7 5.4-7.1v-13.3h2.8v13.3c0 7.2-3.5 9.7-8.1 9.7C230.3 191.1 226.8 188.6 226.8 181.4zM248.8 174h2.3l.2 1.9h.1c1.5-1.3 3.4-2.3 5.3-2.3 4.3 0 6.6 3.4 6.6 8.5 0 5.7-3.4 9-7.2 9-1.5 0-3.1-.7-4.6-1.9l.1 2.9v5.7h-2.8V174zM260.5 182.1c0-3.7-1.3-6.2-4.4-6.2-1.4 0-2.8.8-4.5 2.3v8.8c1.5 1.3 3 1.7 4.1 1.7C258.4 188.7 260.5 186.2 260.5 182.1zM266 188.8l1.4-1.9c1.5 1.2 2.9 2 4.9 2 2.2 0 3.3-1.2 3.3-2.6 0-1.7-2-2.5-3.8-3.2-2.3-.9-5-2-5-4.8 0-2.7 2.1-4.7 5.8-4.7 2.1 0 3.9.9 5.2 1.9l-1.4 1.8c-1.2-.9-2.3-1.5-3.8-1.5-2.1 0-3.1 1.1-3.1 2.4 0 1.6 1.8 2.2 3.7 2.9 2.4.9 5.1 1.9 5.1 5.1 0 2.7-2.2 5-6.1 5C269.9 191.1 267.6 190.1 266 188.8zM282.3 166.2h2.8v16.6h.1l7.1-8.8h3.1l-5.6 6.7 6.3 10H293l-4.9-8-3.1 3.6v4.4h-2.8V166.2zM298.8 168.7c0-1.1.9-1.8 2-1.8 1.1 0 2 .7 2 1.8 0 1.1-.9 1.8-2 1.8C299.6 170.5 298.8 169.8 298.8 168.7zM299.3 174h2.8v16.7h-2.8V174zM307.7 187.3v-21.1h2.8v21.4c0 .9.4 1.2.8 1.2.2 0 .3 0 .6-.1l.4 2.2c-.4.1-.9.3-1.6.3C308.6 191.1 307.7 189.8 307.7 187.3zM316.5 187.3v-21.1h2.8v21.4c0 .9.4 1.2.8 1.2.2 0 .3 0 .6-.1l.4 2.2c-.4.1-.9.3-1.6.3C317.4 191.1 316.5 189.8 316.5 187.3zM324.8 168.7c0-1.1.9-1.8 2-1.8 1.1 0 2 .7 2 1.8 0 1.1-.9 1.8-2 1.8C325.6 170.5 324.8 169.8 324.8 168.7zM325.3 174h2.8v16.7h-2.8V174zM333.7 174h2.3l.2 2.4h.1c1.6-1.6 3.3-2.8 5.6-2.8 3.5 0 5.1 2.3 5.1 6.5v10.6h-2.8v-10.2c0-3.1-.9-4.4-3.2-4.4-1.7 0-2.9.9-4.6 2.6v12.1h-2.8V174zM351.3 193.9c0-1.4.9-2.8 2.5-3.8V190c-.9-.5-1.5-1.4-1.5-2.7 0-1.4 1-2.5 1.8-3.1V184c-1.1-.9-2.2-2.5-2.2-4.5 0-3.7 2.9-6 6.3-6 .9 0 1.8.2 2.4.4h5.8v2.2h-3.4c.8.8 1.4 2 1.4 3.4 0 3.6-2.7 5.8-6.1 5.8-.8 0-1.7-.2-2.5-.6-.6.5-1.1 1.1-1.1 2 0 1.1.7 1.8 2.9 1.8h3.3c3.9 0 5.8 1.2 5.8 4 0 3.1-3.3 5.8-8.5 5.8C354.1 198.4 351.3 196.8 351.3 193.9zM363.9 193c0-1.5-1.2-2.1-3.4-2.1h-2.9c-.6 0-1.4-.1-2.2-.2-1.2.8-1.7 1.8-1.7 2.8 0 1.8 1.8 2.9 4.8 2.9C361.8 196.4 363.9 194.8 363.9 193zM361.7 179.5c0-2.4-1.6-3.9-3.6-3.9s-3.6 1.5-3.6 3.9c0 2.4 1.6 4 3.6 4S361.7 182 361.7 179.5zM377 168.1h6.7c4.6 0 7.8 1.6 7.8 5.5 0 2.2-1.2 4.2-3.3 4.9v.1c2.7.5 4.6 2.3 4.6 5.4 0 4.4-3.5 6.6-8.5 6.6H377V168.1zM383.2 177.7c3.8 0 5.4-1.4 5.4-3.7 0-2.6-1.8-3.6-5.3-3.6h-3.5v7.3H383.2zM383.8 188.4c3.9 0 6.1-1.4 6.1-4.4 0-2.8-2.2-4.1-6.1-4.1h-3.9v8.5H383.8zM397 166.2h2.8v6.7l-.1 3.4c1.6-1.5 3.3-2.8 5.5-2.8 3.5 0 5.1 2.3 5.1 6.5v10.6h-2.8v-10.2c0-3.1-.9-4.4-3.2-4.4-1.7 0-2.9.9-4.6 2.6v12.1H397V166.2zM414.7 186.4c0-3.6 3.1-5.5 10.3-6.2 0-2.2-.7-4.2-3.5-4.2-1.9 0-3.7.9-5 1.8l-1.1-1.9c1.5-1 3.9-2.2 6.6-2.2 4.1 0 5.8 2.7 5.8 6.9v10.3h-2.3l-.2-2h-.1c-1.6 1.3-3.5 2.4-5.5 2.4C416.8 191.1 414.7 189.4 414.7 186.4zM424.9 186.6V182c-5.6.7-7.5 2-7.5 4.2 0 1.9 1.3 2.7 2.9 2.7C422 188.8 423.3 188 424.9 186.6zM433 174h2.3l.2 3h.1c1.2-2.1 2.9-3.5 4.8-3.5.7 0 1.3.1 1.8.3l-.5 2.5c-.6-.2-1-.3-1.6-.3-1.4 0-3.1 1-4.2 3.8v10.7H433V174zM443.9 186.4c0-3.6 3.1-5.5 10.3-6.2 0-2.2-.7-4.2-3.5-4.2-1.9 0-3.7.9-5 1.8l-1.1-1.9c1.5-1 3.9-2.2 6.6-2.2 4.1 0 5.8 2.7 5.8 6.9v10.3h-2.3l-.2-2h-.1c-1.6 1.3-3.5 2.4-5.5 2.4C446 191.1 443.9 189.4 443.9 186.4zM454.2 186.6V182c-5.6.7-7.5 2-7.5 4.2 0 1.9 1.3 2.7 2.9 2.7C451.2 188.8 452.6 188 454.2 186.6zM462.8 185.5v-9.2h-2.5v-2.1l2.6-.2.3-4.7h2.4v4.7h4.5v2.3h-4.5v9.3c0 2 .7 3.2 2.6 3.2.6 0 1.4-.2 1.9-.4l.5 2.1c-.9.3-2.1.6-3.1.6C464 191.1 462.8 188.9 462.8 185.5z" class="color58595b svgShape"></path></svg></g></svg>